<svg width="51" height="59" viewBox="0 0 51 59" fill="none" xmlns="http://www.w3.org/2000/svg">
<path d="M51 28.5484V0H16.4516V9.51613H11.8945C12.6793 8.50456 13.1613 7.17326 13.1613 5.70968C13.1613 2.56079 10.9477 0 8.22581 0C5.50389 0 3.29032 2.56079 3.29032 5.70968C3.29032 7.41877 3.94592 8.95087 4.97744 9.99764C2.08524 11.1634 0 14.3418 0 18.0806V20.9355C0 23.0347 1.47571 24.7419 3.29032 24.7419V34.7339C3.29032 35.2468 3.39973 35.7274 3.57905 36.1613H0V43.7742H3.57823C3.39561 44.3709 3.29032 45.0094 3.29032 45.6774C3.29032 47.3865 3.94592 48.9186 4.97744 49.9654C2.08524 51.1311 0 54.3095 0 58.0484V59H14.8065H16.4516H29.6129H31.2581H46.0645V58.0484C46.0645 54.3095 43.9793 51.1311 41.0871 49.9654C42.1186 48.9186 42.7742 47.3865 42.7742 45.6774C42.7742 45.0094 42.6689 44.3709 42.4863 43.7742H51V36.1613H45.7075L41.7591 28.5484H51ZM18.0968 1.90323H49.3548V26.6452H18.0968V15.2258H20.5645C21.6355 15.2258 22.5404 14.4274 22.8809 13.3226H32.9032V3.80645H19.7419V9.51613H18.0968V1.90323ZM12.8726 36.1613C13.0519 35.7274 13.1613 35.2468 13.1613 34.7339V15.2258H16.4516V28.5484H25.6925L21.7441 36.1613H12.8726ZM27.6107 28.5484H29.8054L25.857 36.1613H23.6624L27.6107 28.5484ZM31.2581 29.4467V36.1613H27.7753L31.2581 29.4467ZM32.9032 28.5484H34.5484V36.1613H32.9032V28.5484ZM36.1935 29.4467L39.6764 36.1613H36.1935V29.4467ZM22.8809 11.4194C22.6325 10.6133 22.0838 9.97861 21.3871 9.69123V5.70968H31.2581V11.4194H22.8809ZM8.22581 1.90323C10.0404 1.90323 11.5161 3.61042 11.5161 5.70968C11.5161 7.80894 10.0404 9.51613 8.22581 9.51613C6.41119 9.51613 4.93548 7.80894 4.93548 5.70968C4.93548 3.61042 6.41119 1.90323 8.22581 1.90323ZM4.93548 34.7339V18.0806H3.29032V22.8387C2.38302 22.8387 1.64516 21.9851 1.64516 20.9355V18.0806C1.64516 14.4074 4.22806 11.4194 7.40323 11.4194H20.5645C21.0178 11.4194 21.3871 11.8466 21.3871 12.371C21.3871 12.8953 21.0178 13.3226 20.5645 13.3226H11.5161V34.7339C11.5161 35.5209 10.9625 36.1613 10.2823 36.1613C9.60198 36.1613 9.04839 35.5209 9.04839 34.7339V21.8871H7.40323V34.7339C7.40323 35.5209 6.84963 36.1613 6.16935 36.1613C5.48908 36.1613 4.93548 35.5209 4.93548 34.7339ZM8.22581 41.871C10.0404 41.871 11.5161 43.5782 11.5161 45.6774C11.5161 47.7767 10.0404 49.4839 8.22581 49.4839C6.41119 49.4839 4.93548 47.7767 4.93548 45.6774C4.93548 43.5782 6.41119 41.871 8.22581 41.871ZM1.70356 57.0968C2.10416 53.8727 4.50692 51.3871 7.40323 51.3871H9.04839C11.9447 51.3871 14.3475 53.8727 14.748 57.0968H1.70356ZM11.4742 49.9654C12.5057 48.9186 13.1613 47.3865 13.1613 45.6774C13.1613 45.0094 13.056 44.3709 12.8734 43.7742H18.3847C18.2021 44.3709 18.0968 45.0094 18.0968 45.6774C18.0968 47.3865 18.7524 48.9186 19.7839 49.9654C17.98 50.6924 16.4936 52.1998 15.629 54.142C14.7637 52.1998 13.2773 50.6924 11.4742 49.9654ZM26.3226 45.6774C26.3226 47.7767 24.8469 49.4839 23.0323 49.4839C21.2176 49.4839 19.7419 47.7767 19.7419 45.6774C19.7419 43.5782 21.2176 41.871 23.0323 41.871C24.8469 41.871 26.3226 43.5782 26.3226 45.6774ZM16.51 57.0968C16.9106 53.8727 19.3134 51.3871 22.2097 51.3871H23.8548C26.7511 51.3871 29.1539 53.8727 29.5545 57.0968H16.51ZM26.2806 49.9654C27.3121 48.9186 27.9677 47.3865 27.9677 45.6774C27.9677 45.0094 27.8625 44.3709 27.6798 43.7742H33.1911C33.0085 44.3709 32.9032 45.0094 32.9032 45.6774C32.9032 47.3865 33.5588 48.9186 34.5903 49.9654C32.7864 50.6924 31.3 52.1998 30.4355 54.142C29.5701 52.1998 28.0837 50.6924 26.2806 49.9654ZM38.6613 51.3871C41.5576 51.3871 43.9604 53.8727 44.361 57.0968H31.3165C31.7171 53.8727 34.1198 51.3871 37.0161 51.3871H38.6613ZM37.8387 49.4839C36.0241 49.4839 34.5484 47.7767 34.5484 45.6774C34.5484 43.5782 36.0241 41.871 37.8387 41.871C39.6533 41.871 41.129 43.5782 41.129 45.6774C41.129 47.7767 39.6533 49.4839 37.8387 49.4839ZM49.3548 41.871H41.5074C40.6034 40.7062 39.2963 39.9677 37.8387 39.9677C36.3811 39.9677 35.0748 40.7062 34.17 41.871H26.701C25.7969 40.7062 24.4899 39.9677 23.0323 39.9677C21.5746 39.9677 20.2684 40.7062 19.3635 41.871H11.8945C10.9905 40.7062 9.68342 39.9677 8.22581 39.9677C6.76819 39.9677 5.46194 40.7062 4.5571 41.871H1.64516V38.0645H49.3548V41.871ZM43.7893 36.1613H41.5946L37.6462 28.5484H39.8409L43.7893 36.1613Z" fill="#2A378E"/>
</svg>
