<svg width="26" height="27" viewBox="0 0 26 27" fill="none" xmlns="http://www.w3.org/2000/svg">
<path d="M18.8248 0H7.17491C3.21867 0 0 3.34262 0 7.45102V19.549C0 23.6575 3.21867 27 7.17491 27H18.8248C22.7813 27 26 23.6574 26 19.549V7.45102C26.0002 3.34262 22.7813 0 18.8248 0ZM23.6933 19.549C23.6933 22.3366 21.5093 24.6044 18.8249 24.6044H7.17491C4.49066 24.6046 2.30685 22.3366 2.30685 19.549V7.45102C2.30685 4.66354 4.49066 2.39557 7.17491 2.39557H18.8248C21.5092 2.39557 23.6932 4.66354 23.6932 7.45102V19.549H23.6933Z" fill="#767377"/>
<path d="M13 6.42844C9.08998 6.42844 5.90906 9.60069 5.90906 13.5C5.90906 17.3992 9.08998 20.5713 13 20.5713C16.91 20.5713 20.0909 17.3992 20.0909 13.5C20.0909 9.60069 16.91 6.42844 13 6.42844ZM13 18.1362C10.4364 18.1362 8.35066 16.0564 8.35066 13.4999C8.35066 10.9432 10.4363 8.86323 13 8.86323C15.5637 8.86323 17.6493 10.9432 17.6493 13.4999C17.6493 16.0564 15.5635 18.1362 13 18.1362Z" fill="#767377"/>
<path d="M20.6818 3.85706C20.216 3.85706 19.7585 4.06219 19.4296 4.4216C19.0991 4.77926 18.9091 5.27719 18.9091 5.78563C18.9091 6.29249 19.0992 6.79024 19.4296 7.14965C19.7584 7.50732 20.216 7.7142 20.6818 7.7142C21.1491 7.7142 21.6052 7.50732 21.9356 7.14965C22.266 6.79024 22.4545 6.29232 22.4545 5.78563C22.4545 5.27719 22.266 4.77926 21.9356 4.4216C21.6068 4.06219 21.1491 3.85706 20.6818 3.85706Z" fill="#767377"/>
</svg>
