<svg width="28" height="39" viewBox="0 0 28 39" fill="none" xmlns="http://www.w3.org/2000/svg">
<path d="M27.2398 17.9782L6.03033 0.623044C5.53978 0.221315 4.88495 0 4.18671 0C3.48847 0 2.83363 0.221315 2.34308 0.623044L0.781158 1.90084C-0.235199 2.73347 -0.235199 4.08672 0.781158 4.91808L18.5912 19.4919L0.761396 34.0819C0.270848 34.4836 0 35.0192 0 35.5902C0 36.1619 0.270848 36.6974 0.761396 37.0995L2.32332 38.377C2.81426 38.7787 3.46871 39 4.16695 39C4.86518 39 5.52002 38.7787 6.01057 38.377L27.2398 21.0059C27.7315 20.6029 28.0015 20.0649 28 19.4929C28.0015 18.9187 27.7315 18.3809 27.2398 17.9782Z" fill="white"/>
</svg>
