<svg width="28" height="39" viewBox="0 0 28 39" fill="none" xmlns="http://www.w3.org/2000/svg">
<path d="M0.760239 17.9782L21.9697 0.623044C22.4602 0.221315 23.1151 0 23.8133 0C24.5115 0 25.1664 0.221315 25.6569 0.623044L27.2188 1.90084C28.2352 2.73347 28.2352 4.08672 27.2188 4.91808L9.40877 19.4919L27.2386 34.0819C27.7292 34.4836 28 35.0192 28 35.5902C28 36.1619 27.7292 36.6974 27.2386 37.0995L25.6767 38.377C25.1857 38.7787 24.5313 39 23.8331 39C23.1348 39 22.48 38.7787 21.9894 38.377L0.760239 21.0059C0.268529 20.6029 -0.00154326 20.0649 6.65151e-06 19.4929C-0.00154326 18.9187 0.268529 18.3809 0.760239 17.9782Z" fill="white"/>
</svg>
