<svg width="46" height="62" viewBox="0 0 46 62" fill="none" xmlns="http://www.w3.org/2000/svg">
<path d="M39.7781 40.5058L36.367 39.4373L28.9457 34.2665V33.0817C31.0944 31.3529 32.5699 28.7103 32.8442 25.6811C33.9218 25.4961 34.7474 24.4972 34.7474 23.2964V20.0384C34.7474 20.0258 34.7461 20.0134 34.7456 20.0008V15.8737C35.1749 15.5458 35.4473 15.0117 35.4473 14.4125V10.6356L40.5689 9.70496C41.4106 9.55202 42.0159 8.8389 42.0754 7.93033C42.1346 7.02177 41.628 6.22594 40.8144 5.94997L23.5488 0.0916982C23.1885 -0.0306064 22.808 -0.0304853 22.4479 0.0915771L5.18206 5.94997C4.36848 6.22594 3.86174 7.02177 3.92111 7.93021C3.9588 8.50747 4.21739 9.00516 4.61652 9.33115V14.2702H4.57429C3.60201 14.2702 2.81103 15.114 2.81103 16.1511V18.6028L1.67279 25.7294C1.47606 26.962 2.36604 28.0903 3.54094 28.0903H7.39474C8.56703 28.0903 9.46007 26.9647 9.26289 25.7293L8.12465 18.6028V16.1511C8.12465 15.114 7.33366 14.2702 6.36139 14.2702H6.31927V9.86687L10.5528 10.6361V14.4125C10.5528 15.0091 10.824 15.5424 11.2513 15.8708L11.2528 20.0387V23.2964C11.2528 24.4973 12.0785 25.4961 13.1561 25.6811C13.4302 28.7086 14.9041 31.35 17.0507 33.079V34.2693L9.63103 39.4392L6.22267 40.5064C2.57548 41.6483 0.00022691 45.2202 0.00022691 49.3722V52.0789C0.00022691 52.5805 0.381304 52.9871 0.851606 52.9871C1.32191 52.9871 1.70298 52.5806 1.70298 52.0789V49.3722C1.70298 46.0998 3.75867 43.1707 6.70228 42.2491L9.87804 41.2547L22.5654 49.2969C22.823 49.4601 23.1637 49.4689 23.4352 49.2969L36.1233 41.2542L39.2987 42.2487C42.2419 43.1704 44.2976 46.0994 44.2976 49.3716V58.1434C44.2976 59.2685 43.4395 60.1838 42.3848 60.1838H38.6323V56.2691C38.6323 55.7676 38.2512 55.3609 37.7809 55.3609C37.3107 55.3609 36.9295 55.7674 36.9295 56.2691V60.1838H9.06696V56.2691C9.06696 55.7676 8.68588 55.3609 8.21558 55.3609C7.74528 55.3609 7.3642 55.7674 7.3642 56.2691V60.1838H3.61552C2.56083 60.1838 1.70276 59.2685 1.70276 58.1434V56.3243C1.70276 55.8228 1.32168 55.4161 0.851379 55.4161C0.381077 55.4161 0 55.8226 0 56.3243V58.1433C0 60.2699 1.62182 62 3.61541 62H42.3846C44.3782 62 46 60.2699 46 58.1433V49.3715C46 45.3173 43.5126 41.6754 39.7781 40.5058ZM7.39462 26.2738H3.54094C3.42186 26.2738 3.33105 26.1604 3.35125 26.0343L4.38085 19.5878H6.55471L7.58431 26.0342C7.6044 26.16 7.51427 26.2738 7.39462 26.2738ZM6.42189 16.1511V17.7715H4.51356V16.1511C4.51356 16.1154 4.54069 16.0865 4.57417 16.0865H6.36116C6.39476 16.0864 6.42189 16.1154 6.42189 16.1511ZM19.9552 45.1887L20.294 45.7443L11.6021 40.2349L17.1192 36.3907C17.3694 39.5222 18.337 42.5356 19.9552 45.1887ZM19.9493 41.2683C21.9532 41.572 24.0458 41.5722 26.0508 41.2683C25.6634 42.2852 25.1859 43.2666 24.6178 44.1983L23.0001 46.8507L21.3823 44.1983C20.8142 43.2666 20.3367 42.2852 19.9493 41.2683ZM26.0449 45.1887C27.6631 42.5356 28.6307 39.5222 28.8808 36.3907L34.3979 40.2347L25.7061 45.7443L26.0449 45.1887ZM31.025 16.2119H33.0429V19.13H32.0414C31.4809 19.13 31.0249 18.6437 31.0249 18.0459L31.025 16.2119ZM5.69811 7.68088L22.9642 1.82237C22.9863 1.81486 23.0102 1.81474 23.0326 1.82249L40.2986 7.68088C40.3342 7.69299 40.3832 7.70946 40.3769 7.80403C40.3707 7.89849 40.3202 7.90757 40.2832 7.91435L34.5746 8.95152L32.4314 8.66876C31.9651 8.60713 31.5398 8.96096 31.4821 9.45866C31.4244 9.95648 31.756 10.4098 32.2225 10.4714L33.7448 10.6723V14.3956L12.2554 14.3948V10.6721L21.0652 9.50928C22.3484 9.34011 23.6493 9.34011 24.9316 9.50928L28.2659 9.94921C28.7324 10.0108 29.1576 9.65713 29.2154 9.15944C29.2731 8.66162 28.9415 8.20825 28.475 8.14661L25.1407 7.70668C23.7198 7.5191 22.2781 7.5191 20.8562 7.70668L11.4236 8.95176L5.71332 7.91435C5.67631 7.90757 5.6258 7.89849 5.61955 7.80403C5.61342 7.70946 5.66235 7.69287 5.69811 7.68088ZM12.955 19.13L12.9539 16.2119H14.9751V18.046C14.9751 18.6437 14.5192 19.1302 13.9586 19.1302L12.955 19.13ZM14.8289 25.2143C14.785 24.4748 14.2088 23.8954 13.5172 23.8954C13.2074 23.8954 12.9554 23.6266 12.9554 23.2963V20.9465H13.9586C15.4579 20.9465 16.6777 19.6453 16.6777 18.046V16.2119H29.3223V18.046C29.3223 19.6453 30.5421 20.9465 32.0414 20.9465H33.0446V23.2963C33.0446 23.6266 32.7926 23.8954 32.4828 23.8954C31.7912 23.8954 31.215 24.4748 31.1711 25.2144C30.8999 29.8001 27.3108 33.3923 22.9999 33.3923C18.6891 33.3923 15.1001 29.8001 14.8289 25.2143ZM23.0001 35.2086C24.5143 35.2086 25.9534 34.8393 27.2431 34.1826V34.7582C27.2431 36.3109 27.0467 37.8427 26.6686 39.32C24.3549 39.7906 21.7391 39.8096 19.3315 39.32C18.9534 37.8428 18.757 36.3111 18.757 34.7582C18.757 34.7389 18.7545 34.7201 18.7534 34.7011C18.7532 34.6974 18.7535 34.6936 18.7533 34.6899V34.1808C20.0438 34.8386 21.4844 35.2086 23.0001 35.2086Z" fill="#2A378E"/>
</svg>
