<svg width="58" height="51" viewBox="0 0 58 51" fill="none" xmlns="http://www.w3.org/2000/svg">
<path d="M55.5644 43.4314H53.8626C54.0809 42.994 54.2051 42.4992 54.2051 41.9748L54.2039 11.7015C54.2039 9.93593 52.8064 8.49944 51.0887 8.49944H46.5019V7.43286C46.5019 6.59183 45.8363 5.90752 45.018 5.90752H43.6118V1.52536C43.6118 1.03294 43.3788 0.568471 42.9886 0.282732C42.5984 -0.00289139 42.0952 -0.0774123 41.6423 0.0836219L38.9661 1.03481C38.5228 1.19246 38.2876 1.68966 38.4409 2.14551C38.5942 2.60125 39.0776 2.84356 39.5214 2.68544L41.9125 1.83555V22.8386L29.8496 27.1264V6.12339L36.0956 3.90327C36.5391 3.74561 36.7742 3.24842 36.6209 2.79256C36.4675 2.33682 35.9842 2.09474 35.5403 2.25264L29 4.57733L16.3577 0.0836219C15.9048 -0.0775287 15.4016 -0.00289139 15.0114 0.282732C14.6212 0.568471 14.3882 1.03294 14.3882 1.52536V5.9074H12.982C12.1637 5.9074 11.498 6.59171 11.498 7.43274V8.50048H6.91016C5.19236 8.50048 3.79492 9.93698 3.79492 11.7025L3.79503 14.8081C3.79503 15.2905 4.17543 15.6814 4.64464 15.6814C5.11386 15.6814 5.49425 15.2903 5.49425 14.8081L5.49414 11.7027C5.49414 10.9 6.12931 10.2472 6.91016 10.2472H11.498V11.9937H8.04297C7.81765 11.9937 7.60151 12.0857 7.44224 12.2496C7.28285 12.4133 7.19336 12.6354 7.19336 12.867L7.19449 40.8115C7.19449 41.2939 7.57489 41.6848 8.0441 41.6848L49.957 41.6837C50.1823 41.6837 50.3985 41.5917 50.5579 41.4278C50.7171 41.2641 50.8066 41.042 50.8066 40.8104L50.8055 12.8659C50.8055 12.3835 50.4251 11.9926 49.9559 11.9926H46.5019V10.246H51.0887C51.8696 10.246 52.5047 10.8989 52.5047 11.7015L52.5059 41.9748C52.5059 42.7774 51.8707 43.4302 51.0898 43.4302L6.91129 43.4314C6.13044 43.4314 5.49527 42.7785 5.49527 41.9759L5.49448 18.545C5.49448 18.0626 5.11408 17.6717 4.64487 17.6717C4.17566 17.6717 3.79526 18.0627 3.79526 18.545L3.79605 41.9759C3.79605 42.4999 3.91987 42.9944 4.13794 43.4314H2.43555C1.0926 43.4314 0 44.5544 0 45.9348V48.4965C0 49.877 1.0926 51 2.43555 51H36.2139C36.6832 51 37.0635 50.6091 37.0635 50.1267C37.0635 49.6443 36.6832 49.2534 36.2139 49.2534H2.43555C2.02955 49.2534 1.69922 48.9139 1.69922 48.4966V45.9349C1.69922 45.5176 2.02955 45.1781 2.43555 45.1781H23.2793V45.7917C23.2793 46.9943 24.2312 47.9727 25.4012 47.9727H32.5989C33.7689 47.9727 34.7207 46.9944 34.7207 45.7917V45.1781H55.5644C55.9705 45.1781 56.3008 45.5176 56.3008 45.9349V48.4966C56.3008 48.9139 55.9705 49.2534 55.5644 49.2534H39.9231C39.4538 49.2534 39.0735 49.6443 39.0735 50.1267C39.0735 50.6091 39.4538 51 39.9231 51H55.5644C56.9074 51 58 49.877 58 48.4966V45.9349C58 44.5544 56.9074 43.4314 55.5644 43.4314ZM42.6129 24.4376C43.2103 24.2251 43.6118 23.6457 43.6118 22.996V7.65409H44.8027V27.4791H34.0564L42.6129 24.4376ZM16.0874 1.83555L28.1504 6.12339V27.1264L16.0874 22.8386V1.83555ZM13.1973 7.65409H14.3882V22.9961C14.3882 23.6458 14.7897 24.2252 15.3873 24.4379L23.9436 27.4792H13.1973V7.65409ZM49.1063 13.7392L49.1074 39.9371L8.8936 39.9382L8.89258 13.7403H11.498V27.7003C11.498 28.5414 12.1637 29.2257 12.982 29.2257H45.018C45.8363 29.2257 46.5019 28.5414 46.5019 27.7003V13.7392H49.1063ZM33.0215 45.7916C33.0215 46.0311 32.8318 46.226 32.5989 46.226H25.4012C25.1681 46.226 24.9785 46.0311 24.9785 45.7916V45.178H33.0215V45.7916Z" fill="#2A378E"/>
</svg>
