<svg width="66" height="39" viewBox="0 0 66 39" fill="none" xmlns="http://www.w3.org/2000/svg">
<path d="M64.9126 17.2737C64.9118 17.2728 64.9112 17.2717 64.9103 17.2707L51.5075 0.915861C50.5034 -0.309337 48.8793 -0.304778 47.8799 0.926554C46.8805 2.15773 46.8844 4.14909 47.8885 5.37444L56.8871 16.3548H2.56504C1.14837 16.3548 0 17.7629 0 19.5C0 21.2371 1.14837 22.6452 2.56504 22.6452H56.887L47.8886 33.6256C46.8845 34.8509 46.8807 36.8423 47.88 38.0734C48.8795 39.3049 50.5037 39.3092 51.5076 38.0841L64.9104 21.7293C64.9112 21.7283 64.9119 21.7272 64.9128 21.7263C65.9174 20.4969 65.9141 18.4991 64.9126 17.2737Z" fill="#2A378E"/>
</svg>
