<svg width="66" height="39" viewBox="0 0 66 39" fill="none" xmlns="http://www.w3.org/2000/svg">
<path d="M0.752417 17.2737C0.753186 17.2728 0.753828 17.2717 0.754726 17.2707L14.1576 0.915861C15.1616 -0.309337 16.7857 -0.304778 17.7852 0.926554C18.7845 2.15773 18.7806 4.14909 17.7766 5.37444L8.7779 16.3548H63.1C64.5167 16.3548 65.665 17.7629 65.665 19.5C65.665 21.2371 64.5167 22.6452 63.1 22.6452H8.77803L17.7764 33.6256C18.7805 34.8509 18.7844 36.8423 17.785 38.0734C16.7856 39.3049 15.1614 39.3092 14.1574 38.0841L0.754597 21.7293C0.753827 21.7283 0.753185 21.7272 0.752287 21.7263C-0.252309 20.4969 -0.249102 18.4991 0.752417 17.2737Z" fill="#2A378E"/>
</svg>
