<svg width="27" height="21" viewBox="0 0 27 21" fill="none" xmlns="http://www.w3.org/2000/svg">
<path d="M26.8182 2.97935C26.4975 2.5434 25.8625 2.43496 25.4001 2.7376L22.2362 4.80891C21.9489 4.99695 21.784 5.31087 21.799 5.64043C21.8081 5.83809 21.8126 6.02344 21.8126 6.207C21.8126 12.3089 16.8916 18.6203 8.65628 18.6203C6.97749 18.6203 5.32817 18.3188 3.78673 17.7372L8.66932 16.4487C9.21126 16.3057 9.52767 15.7752 9.37606 15.2639C9.22444 14.7527 8.6628 14.4541 8.12032 14.5971L0.744465 16.5437C0.357813 16.6457 0.0707455 16.9525 0.0112398 17.3272C-0.0481301 17.7017 0.131066 18.0745 0.469081 18.2789C2.91778 19.7601 5.74892 20.5431 8.65628 20.5431C14.3701 20.5431 17.9487 17.9961 19.9448 15.8596C22.427 13.2026 23.8505 9.68448 23.8505 6.20713C23.8505 6.16906 23.8504 6.13099 23.8501 6.09279L26.5619 4.31745C27.0241 4.01468 27.1389 3.41568 26.8182 2.97935Z" fill="#767377"/>
<path d="M2.24907 2.67941L12.5179 7.59075C12.6635 7.66049 12.8214 7.69471 12.9784 7.69471C13.2021 7.69471 13.4243 7.62536 13.6073 7.48987C13.9189 7.2594 14.0607 6.87959 13.971 6.51568C13.903 6.23957 13.8686 5.95219 13.8686 5.66172C13.8686 3.60015 15.6466 1.92288 17.832 1.92288C18.9244 1.92288 19.9791 2.35319 20.7252 3.10357C21.004 3.38404 21.4332 3.48056 21.8163 3.3493L24.9856 2.26282C25.5145 2.08144 25.7875 1.52999 25.5953 1.03098C25.4032 0.531832 24.8182 0.274568 24.2897 0.455691L21.7107 1.33977C20.6335 0.481969 19.254 0 17.832 0C14.7167 0 12.1484 2.25103 11.858 5.11938L3.17046 0.964451C2.66847 0.724235 2.05534 0.91369 1.80088 1.3872C1.54642 1.86084 1.74708 2.43933 2.24907 2.67941Z" fill="#767377"/>
<path d="M1.72389 8.43641L3.98022 9.02413C4.07098 9.04784 4.16214 9.05899 4.25194 9.05899C4.69877 9.05899 5.10879 8.77943 5.23351 8.35322C5.38336 7.84151 5.06491 7.31198 4.52257 7.1706L2.26624 6.58288C1.72417 6.44162 1.16267 6.74182 1.01281 7.25366C0.863099 7.76562 1.18141 8.29502 1.72389 8.43641Z" fill="#767377"/>
<path d="M3.70208 11.2979C3.13977 11.318 2.70122 11.7644 2.72255 12.2949C2.74333 12.8132 3.19506 13.2199 3.74012 13.2199C3.75317 13.2199 3.76621 13.2196 3.77925 13.2192L6.02933 13.1387C6.59164 13.1186 7.03019 12.6723 7.009 12.1416C6.98767 11.6111 6.51339 11.1978 5.9523 11.2174L3.70208 11.2979Z" fill="#767377"/>
</svg>
