<svg width="27" height="18" viewBox="0 0 27 18" fill="none" xmlns="http://www.w3.org/2000/svg">
<path d="M22.2871 0H4.7129C2.11417 0 0 1.95125 0 4.34959V13.6229C0 16.0212 2.11417 17.9723 4.7129 17.9723H22.2872C24.8858 17.9723 27 16.0212 27 13.6229V4.34959C26.9999 1.95125 24.8857 0 22.2871 0ZM25.0683 13.6228C25.0683 15.0384 23.8206 16.19 22.2871 16.19H4.7129C3.17924 16.19 1.93157 15.0384 1.93157 13.6228V4.34947C1.93157 2.93383 3.17924 1.78218 4.7129 1.78218H22.2872C23.8208 1.78218 25.0684 2.93383 25.0684 4.34947V13.6228H25.0683Z" fill="#767377"/>
<path d="M18.6841 8.24168L11.5249 3.88722C11.2284 3.70674 10.8484 3.6913 10.5355 3.84658C10.2227 4.00199 10.0276 4.30342 10.0276 4.63122V13.3412C10.0276 13.669 10.2227 13.9703 10.5355 14.1258C10.6788 14.1971 10.8363 14.2323 10.9932 14.2323C11.1789 14.2323 11.3642 14.183 11.5249 14.0851L18.6841 9.72956C18.9552 9.56465 19.1183 9.28521 19.1183 8.98556C19.1183 8.68604 18.9552 8.40659 18.6841 8.24168ZM11.9592 11.6863V6.28591L16.398 8.98568L11.9592 11.6863Z" fill="#767377"/>
</svg>
